# xmcd
#
# Track frame offsets:
# 150
# 22701
# 35457
# 46143
# 56393
# 67725
# 78639
# 94725
# 118334
# 135868
# 151761
# 166373
# 181875
# 192110
# 214872
# 228444
#
# Disc length: 3227 seconds
#
#
# Revision: 0
# Processed by: cddbd v1.5.1PL2 Copyright (c) Steve Scherf et al.
# Submitted via: FreeRIP 2.60 
#
DISCID=c00c9910
DTITLE=B.B.King - B.B.King - Double Legend CD1
DYEAR=2005
DGENRE=Blues
TTITLE0=The Thrill Is Gone
TTITLE1=Please love Me
TTITLE2=Recession Blues
TTITLE3=Don't Keep me Waiting
TTITLE4=Tickle Britches
TTITLE5=Don't Break Your Promise
TTITLE6=It's My Own Fault Baby
TTITLE7=You've Done Lost You're Good Thing Now
TTITLE8=Evil Child
TTITLE9=Long Nights
TTITLE10=Mr. Pawnbroker
TTITLE11=Walkin' And Crying
TTITLE12=I'm still Willing to run all the way
TTITLE13=Don't answer the door
TTITLE14=Sneakin' Around
TTITLE15=The Woman I love
EXTD=
EXTT0=
EXTT1=
EXTT2=
EXTT3=
EXTT4=
EXTT5=
EXTT6=
EXTT7=
EXTT8=
EXTT9=
EXTT10=
EXTT11=
EXTT12=
EXTT13=
EXTT14=
EXTT15=
PLAYORDER=
